<svg id="Livello_1" data-name="Livello 1" xmlns="http://www.w3.org/2000/svg" viewBox="0 0 512 512"><defs><style>.cls-1{fill:#ccc;}.cls-2{fill:#333;}.cls-3{fill:#f2f2f2;}</style></defs><title>Tavola disegno 1 copia 4</title><rect class="cls-1" x="42.5" y="92.5" width="232.53" height="335.73" rx="16.5"/><path class="cls-2" d="M258.53,101a8,8,0,0,1,8,8V411.73a8,8,0,0,1-8,8H59a8,8,0,0,1-8-8V109a8,8,0,0,1,8-8H258.53m0-17H59a25,25,0,0,0-25,25V411.73a25,25,0,0,0,25,25H258.53a25,25,0,0,0,25-25V109a25,25,0,0,0-25-25Z"/><rect class="cls-3" x="42.83" y="169.5" width="426.33" height="268" rx="16.5"/><path class="cls-2" d="M452.67,178a8,8,0,0,1,8,8V421a8,8,0,0,1-8,8H59.33a8,8,0,0,1-8-8V186a8,8,0,0,1,8-8H452.67m0-17H59.33a25,25,0,0,0-25,25V421a25,25,0,0,0,25,25H452.67a25,25,0,0,0,25-25V186a25,25,0,0,0-25-25Z"/></svg>