<svg id="Livello_1" data-name="Livello 1" xmlns="http://www.w3.org/2000/svg" viewBox="0 0 512 512"><defs><style>.cls-1{fill:#ccc;}.cls-2{fill:#fff;}.cls-3{fill:#666;}</style></defs><title>Tavola disegno 1 copia 2</title><rect class="cls-1" x="57" y="93" width="231.53" height="334.73" rx="16"/><path class="cls-2" d="M272.53,102a7,7,0,0,1,7,7V411.73a7,7,0,0,1-7,7H73a7,7,0,0,1-7-7V109a7,7,0,0,1,7-7H272.53m0-18H73a25,25,0,0,0-25,25V411.73a25,25,0,0,0,25,25H272.53a25,25,0,0,0,25-25V109a25,25,0,0,0-25-25Z"/><rect class="cls-1" x="56.5" y="169.5" width="400" height="265.47" rx="16.5"/><path class="cls-2" d="M440,178a8,8,0,0,1,8,8V418.47a8,8,0,0,1-8,8H73a8,8,0,0,1-8-8V186a8,8,0,0,1,8-8H440m0-17H73a25,25,0,0,0-25,25V418.47a25,25,0,0,0,25,25H440a25,25,0,0,0,25-25V186a25,25,0,0,0-25-25Z"/><rect class="cls-3" x="56.5" y="263.5" width="400" height="171.47" rx="16.5"/><path class="cls-2" d="M440,272a8,8,0,0,1,8,8V418.47a8,8,0,0,1-8,8H73a8,8,0,0,1-8-8V280a8,8,0,0,1,8-8H440m0-17H73a25,25,0,0,0-25,25V418.47a25,25,0,0,0,25,25H440a25,25,0,0,0,25-25V280a25,25,0,0,0-25-25Z"/></svg>